<svg width="40" height="40" viewBox="0 0 40 40" fill="none" xmlns="http://www.w3.org/2000/svg">
<g clip-path="url(#clip0_2_53)">
<path d="M4.02 28.2709C2.73 25.8009 2 22.9809 2 20.0009C2 17.1309 2.68 14.4109 3.88 12.0009L2.16 10.9609C0.78 13.6709 0 16.7509 0 20.0009C0 23.3109 0.8 26.4309 2.23 29.1809L4.02 28.2709Z" fill="#F6AD01"/>
<path d="M32.1502 33.2695C28.9502 36.2095 24.6802 37.9995 20.0002 37.9995C13.0502 37.9995 7.02022 34.0495 4.01022 28.2695L2.22021 29.1795C5.55021 35.6095 12.2602 39.9995 20.0002 39.9995C25.2002 39.9995 29.9302 38.0195 33.4802 34.7695L32.1502 33.2695Z" fill="#249A41"/>
<path d="M33.4898 34.7709C37.4898 31.1209 39.9998 25.8509 39.9998 20.0009C39.9998 14.1409 37.4798 8.87094 33.4598 5.21094L32.0898 6.67094C35.7198 9.97094 37.9998 14.7209 37.9998 20.0009C37.9998 25.2509 35.7398 29.9809 32.1498 33.2709L33.4898 34.7709Z" fill="#3174F1"/>
<path d="M20.0002 2C24.6502 2 28.8902 3.77 32.0902 6.67L33.4602 5.21C29.9102 1.97 25.1902 0 20.0002 0C12.2102 0 5.46016 4.46 2.16016 10.96L3.88016 12C6.83016 6.08 12.9502 2 20.0002 2Z" fill="#E92D18"/>
</g>
<defs>
<clipPath id="clip0_2_53">
<rect width="40" height="40" fill="white"/>
</clipPath>
</defs>
</svg>
